<svg width="512" height="512" viewBox="0 0 512 512" fill="none" xmlns="http://www.w3.org/2000/svg">
  <!-- Background: Saffron gradient (Indian flag inspired) -->
  <defs>
    <linearGradient id="bg" x1="0" y1="0" x2="512" y2="512">
      <stop offset="0%" stop-color="#FF9933"/>
      <stop offset="100%" stop-color="#D97706"/>
    </linearGradient>
    <linearGradient id="book" x1="0" y1="0" x2="0" y2="512">
      <stop offset="0%" stop-color="#FFFFFF"/>
      <stop offset="100%" stop-color="#F5F5F5"/>
    </linearGradient>
  </defs>
  
  <!-- Rounded square background -->
  <rect width="512" height="512" rx="112" fill="url(#bg)"/>
  
  <!-- Book/Ledger icon (open book) -->
  <!-- Left page -->
  <path d="M256 160 L256 376 L160 340 L160 124 Z" fill="url(#book)" opacity="0.95"/>
  <!-- Right page -->
  <path d="M256 160 L256 376 L352 340 L352 124 Z" fill="url(#book)" opacity="0.95"/>
  
  <!-- Book spine (center line) -->
  <line x1="256" y1="160" x2="256" y2="376" stroke="#D97706" stroke-width="4" opacity="0.3"/>
  
  <!-- Ledger lines on left page -->
  <line x1="180" y1="160" x2="240" y2="170" stroke="#D97706" stroke-width="3" opacity="0.4"/>
  <line x1="180" y1="180" x2="240" y2="190" stroke="#D97706" stroke-width="3" opacity="0.4"/>
  <line x1="180" y1="200" x2="240" y2="210" stroke="#D97706" stroke-width="3" opacity="0.4"/>
  <line x1="180" y1="220" x2="230" y2="230" stroke="#D97706" stroke-width="3" opacity="0.4"/>
  
  <!-- Ledger lines on right page -->
  <line x1="272" y1="170" x2="332" y2="160" stroke="#D97706" stroke-width="3" opacity="0.4"/>
  <line x1="272" y1="190" x2="332" y2="180" stroke="#D97706" stroke-width="3" opacity="0.4"/>
  <line x1="272" y1="210" x2="332" y2="200" stroke="#D97706" stroke-width="3" opacity="0.4"/>
  <line x1="272" y1="230" x2="322" y2="220" stroke="#D97706" stroke-width="3" opacity="0.4"/>
  
  <!-- "Ek" text on left page (Hindi "एक" = one) — stylized -->
  <text x="200" y="290" font-family="Arial, sans-serif" font-size="48" font-weight="bold" fill="#D97706" opacity="0.6">₹</text>
  
  <!-- Checkmark on right page (success/completed) -->
  <path d="M285 280 L300 295 L330 265" stroke="#10B981" stroke-width="6" stroke-linecap="round" stroke-linejoin="round" fill="none"/>
  
  <!-- Bottom shadow of book -->
  <ellipse cx="256" cy="385" rx="100" ry="8" fill="#000000" opacity="0.1"/>
</svg>
